<svg height="910" viewBox="0 0 371 135" width="2500" xmlns="http://www.w3.org/2000/svg"><path d="m39.9 129.7v.4c0 3.5-5.4 4.9-20.2 4.9-11.9 0-18.1-1.1-19.4-3.7-.2-.4-.3-1.1-.3-2.2v-23.1c0-3 1.3-4.2 5.1-5.1 3.2-.8 8.5-1.2 14.7-1.2 5.9 0 11.2.4 14.7 1.1 4.2.8 5.5 2 5.5 4.8v24.1m-24.6-.9v.5c0 2 1.7 2.4 4.3 2.4 3.1 0 4.7-.4 4.7-2.1v-24.7c0-1.5-1.9-1.9-4.7-1.9-2.9 0-4.3.4-4.3 2v.5zm75.9 5.5-2.8-8.5h-10.6l-2.4 8.5h-12l12.4-34.2h19.5l13.4 34.2zm-3.9-12.4-4.7-13.5-4 13.5zm64.1-21.8v14l12.8-14h14.5l-13.1 14.2 12.3 20h-17.8l-8.7-15v15h-16.7v-34.2zm69.3 0v29.7h16.6v4.5h-33.3v-34.2zm74.1 4.4h-16v10.5h12.3l.1 4h-12.3v11h15.8v4.3h-32.6v-34.2h32.7zm50.7 29.8h-16.8v-12.6l-14.5-21.6h17.8l7.4 12.8 7.5-12.8h13l-14.4 21.6zm-166-134.3c-66.4 0-121.5 18.2-121.5 42s55.1 42 121.5 42 121.5-18.2 121.5-42-55.1-42-121.5-42m.3 75c-39 0-74-14.2-74-33.4s35.1-33.4 74-33.4c39 0 74 14.2 74 33.4s-35 33.4-74 33.4zm191.1 28c0 1.4-1.6 2.6-3.6 2.6s-3.7-1.2-3.7-2.6c0-1.5 1.6-2.6 3.7-2.6 2 0 3.6 1.2 3.6 2.6zm-.7 0c0-1.2-1.3-2.1-2.9-2.1s-3 .9-3 2.1 1.3 2.1 3 2.1c1.6.1 2.9-.9 2.9-2.1zm-3.4 1.5h-1v-3h1.8c.7 0 1.1.3 1.1.8 0 .4-.2.7-.9.7.2 0 .8 0 .8.6 0 .2 0 .8.1.9h-.9c-.1-.2-.1-.4-.1-.6 0-.4.1-.7-.7-.7h-.2zm0-1.6h.4c.4 0 .5-.3.5-.4 0-.3-.2-.4-.5-.4h-.4zm-80-26.9c0 1.4-1.6 2.6-3.6 2.6s-3.7-1.2-3.7-2.6c0-1.5 1.6-2.6 3.7-2.6 2 0 3.6 1.2 3.6 2.6zm-.7 0c0-1.2-1.3-2.1-2.9-2.1s-3 .9-3 2.1 1.3 2.1 3 2.1c1.6.1 2.9-.9 2.9-2.1zm-3.4 1.5h-1v-3h1.8c.7 0 1.1.3 1.1.8 0 .4-.2.7-.9.7.2 0 .8 0 .8.6 0 .2 0 .8.1.9h-.9c-.1-.2-.1-.4-.1-.6 0-.4.1-.7-.7-.7h-.2zm0-1.7h.4c.4 0 .5-.3.5-.4 0-.3-.2-.4-.5-.4h-.4z"/></svg>